# MagicaVoxel @ Ephtracy

# group
o 

# material
mtllib xiajiang.mtl
usemtl palette

# normals
vn -1 0 0
vn 1 0 0
vn 0 0 1
vn 0 0 -1
vn 0 -1 0
vn 0 1 0

# texcoords
vt 0.607422 0.5
vt 0.611328 0.5
vt 0.615234 0.5
vt 0.701172 0.5
vt 0.705078 0.5

# verts
v -0.5 1.5 0.5
v -0.5 1.5 -0.5
v -0.5 1.6 0.4
v -0.5 1.6 -0.4
v -0.5 1.7 0.1
v -0.5 1.7 -0.1
v -0.5 1.8 0.2
v -0.5 1.8 0.1
v -0.5 1.8 -0.1
v -0.5 1.8 -0.2
v -0.5 1.9 0.3
v -0.5 1.9 0.2
v -0.5 1.9 -0.2
v -0.5 1.9 -0.3
v -0.5 2 0.2
v -0.5 2 0.1
v -0.5 2 -0.1
v -0.5 2 -0.2
v -0.5 2.1 0.3
v -0.5 2.1 0.2
v -0.5 2.1 -0.2
v -0.5 2.1 -0.3
v -0.5 2.4 0.5
v -0.5 2.4 0.4
v -0.5 2.4 0.1
v -0.5 2.4 -0.1
v -0.5 2.4 -0.4
v -0.5 2.4 -0.5
v -0.5 2.5 0.5
v -0.5 2.5 -0.5
v -0.4 1.7 0.1
v -0.4 1.7 -0.1
v -0.4 1.8 0.2
v -0.4 1.8 0.1
v -0.4 1.8 -0.1
v -0.4 1.8 -0.2
v -0.4 1.9 0.3
v -0.4 1.9 0.2
v -0.4 1.9 -0.2
v -0.4 1.9 -0.3
v -0.4 2 0.2
v -0.4 2 0.1
v -0.4 2 -0.1
v -0.4 2 -0.2
v -0.4 2.1 0.3
v -0.4 2.1 0.2
v -0.4 2.1 -0.2
v -0.4 2.1 -0.3
v -0.4 2.4 0.1
v -0.4 2.4 -0.1
v -0.2 2 0.5
v -0.2 2 0.4
v -0.2 2 -0.4
v -0.2 2 -0.5
v -0.2 2.1 0.5
v -0.2 2.1 0.4
v -0.2 2.1 -0.4
v -0.2 2.1 -0.5
v 0.1 1.7 0.5
v 0.1 1.7 0.4
v 0.1 1.7 -0.4
v 0.1 1.7 -0.5
v 0.1 1.8 0.5
v 0.1 1.8 0.4
v 0.1 1.8 -0.4
v 0.1 1.8 -0.5
v 0.1 2 0.5
v 0.1 2 0.4
v 0.1 2 -0.4
v 0.1 2 -0.5
v 0.1 2.4 0.5
v 0.1 2.4 0.4
v 0.1 2.4 -0.4
v 0.1 2.4 -0.5
v 0.2 1.8 0.5
v 0.2 1.8 0.4
v 0.2 1.8 -0.4
v 0.2 1.8 -0.5
v 0.2 1.9 0.5
v 0.2 1.9 0.4
v 0.2 1.9 -0.4
v 0.2 1.9 -0.5
v 0.3 1.9 0.5
v 0.3 1.9 0.4
v 0.3 1.9 -0.4
v 0.3 1.9 -0.5
v 0.3 2.1 0.5
v 0.3 2.1 0.4
v 0.3 2.1 -0.4
v 0.3 2.1 -0.5
v -0.3 1.9 0.5
v -0.3 1.9 0.4
v -0.3 1.9 -0.4
v -0.3 1.9 -0.5
v -0.3 2.1 0.5
v -0.3 2.1 0.4
v -0.3 2.1 -0.4
v -0.3 2.1 -0.5
v -0.2 1.8 0.5
v -0.2 1.8 0.4
v -0.2 1.8 -0.4
v -0.2 1.8 -0.5
v -0.2 1.9 0.5
v -0.2 1.9 0.4
v -0.2 1.9 -0.4
v -0.2 1.9 -0.5
v -0.1 1.7 0.5
v -0.1 1.7 0.4
v -0.1 1.7 -0.4
v -0.1 1.7 -0.5
v -0.1 1.8 0.5
v -0.1 1.8 0.4
v -0.1 1.8 -0.4
v -0.1 1.8 -0.5
v -0.1 2 0.5
v -0.1 2 0.4
v -0.1 2 -0.4
v -0.1 2 -0.5
v -0.1 2.4 0.5
v -0.1 2.4 0.4
v -0.1 2.4 -0.4
v -0.1 2.4 -0.5
v 0.2 2 0.5
v 0.2 2 0.4
v 0.2 2 -0.4
v 0.2 2 -0.5
v 0.2 2.1 0.5
v 0.2 2.1 0.4
v 0.2 2.1 -0.4
v 0.2 2.1 -0.5
v 0.4 1.7 0.1
v 0.4 1.7 -0.1
v 0.4 1.8 0.2
v 0.4 1.8 0.1
v 0.4 1.8 -0.1
v 0.4 1.8 -0.2
v 0.4 1.9 0.3
v 0.4 1.9 0.2
v 0.4 1.9 -0.2
v 0.4 1.9 -0.3
v 0.4 2 0.2
v 0.4 2 0.1
v 0.4 2 -0.1
v 0.4 2 -0.2
v 0.4 2.1 0.3
v 0.4 2.1 0.2
v 0.4 2.1 -0.2
v 0.4 2.1 -0.3
v 0.4 2.4 0.1
v 0.4 2.4 -0.1
v 0.5 1.5 0.5
v 0.5 1.5 -0.5
v 0.5 1.6 0.4
v 0.5 1.6 -0.4
v 0.5 1.7 0.1
v 0.5 1.7 -0.1
v 0.5 1.8 0.2
v 0.5 1.8 0.1
v 0.5 1.8 -0.1
v 0.5 1.8 -0.2
v 0.5 1.9 0.3
v 0.5 1.9 0.2
v 0.5 1.9 -0.2
v 0.5 1.9 -0.3
v 0.5 2 0.2
v 0.5 2 0.1
v 0.5 2 -0.1
v 0.5 2 -0.2
v 0.5 2.1 0.3
v 0.5 2.1 0.2
v 0.5 2.1 -0.2
v 0.5 2.1 -0.3
v 0.5 2.4 0.5
v 0.5 2.4 0.4
v 0.5 2.4 0.1
v 0.5 2.4 -0.1
v 0.5 2.4 -0.4
v 0.5 2.4 -0.5
v 0.5 2.5 0.5
v 0.5 2.5 -0.5
v -0.5 1.5 0.5
v -0.5 2.4 0.5
v -0.5 2.5 0.5
v -0.4 1.6 0.5
v -0.4 2.4 0.5
v -0.3 1.9 0.5
v -0.3 2.1 0.5
v -0.2 1.8 0.5
v -0.2 1.9 0.5
v -0.2 2 0.5
v -0.2 2.1 0.5
v -0.1 1.7 0.5
v -0.1 1.8 0.5
v -0.1 2 0.5
v -0.1 2.4 0.5
v 0.1 1.7 0.5
v 0.1 1.8 0.5
v 0.1 2 0.5
v 0.1 2.4 0.5
v 0.2 1.8 0.5
v 0.2 1.9 0.5
v 0.2 2 0.5
v 0.2 2.1 0.5
v 0.3 1.9 0.5
v 0.3 2.1 0.5
v 0.4 1.6 0.5
v 0.4 2.4 0.5
v 0.5 1.5 0.5
v 0.5 2.4 0.5
v 0.5 2.5 0.5
v -0.3 1.9 0.4
v -0.3 2.1 0.4
v -0.2 1.8 0.4
v -0.2 1.9 0.4
v -0.2 2 0.4
v -0.2 2.1 0.4
v -0.1 1.7 0.4
v -0.1 1.8 0.4
v -0.1 2 0.4
v -0.1 2.4 0.4
v 0.1 1.7 0.4
v 0.1 1.8 0.4
v 0.1 2 0.4
v 0.1 2.4 0.4
v 0.2 1.8 0.4
v 0.2 1.9 0.4
v 0.2 2 0.4
v 0.2 2.1 0.4
v 0.3 1.9 0.4
v 0.3 2.1 0.4
v -0.5 2 0.2
v -0.5 2.1 0.2
v -0.4 2 0.2
v -0.4 2.1 0.2
v 0.4 2 0.2
v 0.4 2.1 0.2
v 0.5 2 0.2
v 0.5 2.1 0.2
v -0.5 1.7 -0.1
v -0.5 1.8 -0.1
v -0.5 2 -0.1
v -0.5 2.4 -0.1
v -0.4 1.7 -0.1
v -0.4 1.8 -0.1
v -0.4 2 -0.1
v -0.4 2.4 -0.1
v 0.4 1.7 -0.1
v 0.4 1.8 -0.1
v 0.4 2 -0.1
v 0.4 2.4 -0.1
v 0.5 1.7 -0.1
v 0.5 1.8 -0.1
v 0.5 2 -0.1
v 0.5 2.4 -0.1
v -0.5 1.8 -0.2
v -0.5 1.9 -0.2
v -0.4 1.8 -0.2
v -0.4 1.9 -0.2
v 0.4 1.8 -0.2
v 0.4 1.9 -0.2
v 0.5 1.8 -0.2
v 0.5 1.9 -0.2
v -0.5 1.9 -0.3
v -0.5 2.1 -0.3
v -0.4 1.9 -0.3
v -0.4 2.1 -0.3
v 0.4 1.9 -0.3
v 0.4 2.1 -0.3
v 0.5 1.9 -0.3
v 0.5 2.1 -0.3
v -0.5 1.9 0.3
v -0.5 2.1 0.3
v -0.4 1.9 0.3
v -0.4 2.1 0.3
v 0.4 1.9 0.3
v 0.4 2.1 0.3
v 0.5 1.9 0.3
v 0.5 2.1 0.3
v -0.5 1.8 0.2
v -0.5 1.9 0.2
v -0.4 1.8 0.2
v -0.4 1.9 0.2
v 0.4 1.8 0.2
v 0.4 1.9 0.2
v 0.5 1.8 0.2
v 0.5 1.9 0.2
v -0.5 1.7 0.1
v -0.5 1.8 0.1
v -0.5 2 0.1
v -0.5 2.4 0.1
v -0.4 1.7 0.1
v -0.4 1.8 0.1
v -0.4 2 0.1
v -0.4 2.4 0.1
v 0.4 1.7 0.1
v 0.4 1.8 0.1
v 0.4 2 0.1
v 0.4 2.4 0.1
v 0.5 1.7 0.1
v 0.5 1.8 0.1
v 0.5 2 0.1
v 0.5 2.4 0.1
v -0.5 2 -0.2
v -0.5 2.1 -0.2
v -0.4 2 -0.2
v -0.4 2.1 -0.2
v 0.4 2 -0.2
v 0.4 2.1 -0.2
v 0.5 2 -0.2
v 0.5 2.1 -0.2
v -0.3 1.9 -0.4
v -0.3 2.1 -0.4
v -0.2 1.8 -0.4
v -0.2 1.9 -0.4
v -0.2 2 -0.4
v -0.2 2.1 -0.4
v -0.1 1.7 -0.4
v -0.1 1.8 -0.4
v -0.1 2 -0.4
v -0.1 2.4 -0.4
v 0.1 1.7 -0.4
v 0.1 1.8 -0.4
v 0.1 2 -0.4
v 0.1 2.4 -0.4
v 0.2 1.8 -0.4
v 0.2 1.9 -0.4
v 0.2 2 -0.4
v 0.2 2.1 -0.4
v 0.3 1.9 -0.4
v 0.3 2.1 -0.4
v -0.5 1.5 -0.5
v -0.5 2.4 -0.5
v -0.5 2.5 -0.5
v -0.4 1.6 -0.5
v -0.4 2.4 -0.5
v -0.3 1.9 -0.5
v -0.3 2.1 -0.5
v -0.2 1.8 -0.5
v -0.2 1.9 -0.5
v -0.2 2 -0.5
v -0.2 2.1 -0.5
v -0.1 1.7 -0.5
v -0.1 1.8 -0.5
v -0.1 2 -0.5
v -0.1 2.4 -0.5
v 0.1 1.7 -0.5
v 0.1 1.8 -0.5
v 0.1 2 -0.5
v 0.1 2.4 -0.5
v 0.2 1.8 -0.5
v 0.2 1.9 -0.5
v 0.2 2 -0.5
v 0.2 2.1 -0.5
v 0.3 1.9 -0.5
v 0.3 2.1 -0.5
v 0.4 1.6 -0.5
v 0.4 2.4 -0.5
v 0.5 1.5 -0.5
v 0.5 2.4 -0.5
v 0.5 2.5 -0.5
v -0.5 1.5 0.5
v 0.5 1.5 0.5
v -0.4 1.5 0.4
v 0.4 1.5 0.4
v -0.4 1.5 -0.4
v 0.4 1.5 -0.4
v -0.5 1.5 -0.5
v 0.5 1.5 -0.5
v -0.2 2 0.5
v -0.1 2 0.5
v 0.1 2 0.5
v 0.2 2 0.5
v -0.2 2 0.4
v -0.1 2 0.4
v 0.1 2 0.4
v 0.2 2 0.4
v -0.5 2 0.2
v -0.4 2 0.2
v 0.4 2 0.2
v 0.5 2 0.2
v -0.5 2 0.1
v -0.4 2 0.1
v 0.4 2 0.1
v 0.5 2 0.1
v -0.5 2 -0.1
v -0.4 2 -0.1
v 0.4 2 -0.1
v 0.5 2 -0.1
v -0.5 2 -0.2
v -0.4 2 -0.2
v 0.4 2 -0.2
v 0.5 2 -0.2
v -0.2 2 -0.4
v -0.1 2 -0.4
v 0.1 2 -0.4
v 0.2 2 -0.4
v -0.2 2 -0.5
v -0.1 2 -0.5
v 0.1 2 -0.5
v 0.2 2 -0.5
v -0.3 2.1 0.5
v -0.2 2.1 0.5
v 0.2 2.1 0.5
v 0.3 2.1 0.5
v -0.3 2.1 0.4
v -0.2 2.1 0.4
v 0.2 2.1 0.4
v 0.3 2.1 0.4
v -0.5 2.1 0.3
v -0.4 2.1 0.3
v 0.4 2.1 0.3
v 0.5 2.1 0.3
v -0.5 2.1 0.2
v -0.4 2.1 0.2
v 0.4 2.1 0.2
v 0.5 2.1 0.2
v -0.5 2.1 -0.2
v -0.4 2.1 -0.2
v 0.4 2.1 -0.2
v 0.5 2.1 -0.2
v -0.5 2.1 -0.3
v -0.4 2.1 -0.3
v 0.4 2.1 -0.3
v 0.5 2.1 -0.3
v -0.3 2.1 -0.4
v -0.2 2.1 -0.4
v 0.2 2.1 -0.4
v 0.3 2.1 -0.4
v -0.3 2.1 -0.5
v -0.2 2.1 -0.5
v 0.2 2.1 -0.5
v 0.3 2.1 -0.5
v -0.1 2.4 0.5
v 0.1 2.4 0.5
v -0.1 2.4 0.4
v 0.1 2.4 0.4
v -0.5 2.4 0.1
v -0.4 2.4 0.1
v 0.4 2.4 0.1
v 0.5 2.4 0.1
v -0.5 2.4 -0.1
v -0.4 2.4 -0.1
v 0.4 2.4 -0.1
v 0.5 2.4 -0.1
v -0.1 2.4 -0.4
v 0.1 2.4 -0.4
v -0.1 2.4 -0.5
v 0.1 2.4 -0.5
v -0.1 1.7 0.5
v 0.1 1.7 0.5
v -0.1 1.7 0.4
v 0.1 1.7 0.4
v -0.5 1.7 0.1
v -0.4 1.7 0.1
v 0.4 1.7 0.1
v 0.5 1.7 0.1
v -0.5 1.7 -0.1
v -0.4 1.7 -0.1
v 0.4 1.7 -0.1
v 0.5 1.7 -0.1
v -0.1 1.7 -0.4
v 0.1 1.7 -0.4
v -0.1 1.7 -0.5
v 0.1 1.7 -0.5
v -0.2 1.8 0.5
v -0.1 1.8 0.5
v 0.1 1.8 0.5
v 0.2 1.8 0.5
v -0.2 1.8 0.4
v -0.1 1.8 0.4
v 0.1 1.8 0.4
v 0.2 1.8 0.4
v -0.5 1.8 0.2
v -0.4 1.8 0.2
v 0.4 1.8 0.2
v 0.5 1.8 0.2
v -0.5 1.8 0.1
v -0.4 1.8 0.1
v 0.4 1.8 0.1
v 0.5 1.8 0.1
v -0.5 1.8 -0.1
v -0.4 1.8 -0.1
v 0.4 1.8 -0.1
v 0.5 1.8 -0.1
v -0.5 1.8 -0.2
v -0.4 1.8 -0.2
v 0.4 1.8 -0.2
v 0.5 1.8 -0.2
v -0.2 1.8 -0.4
v -0.1 1.8 -0.4
v 0.1 1.8 -0.4
v 0.2 1.8 -0.4
v -0.2 1.8 -0.5
v -0.1 1.8 -0.5
v 0.1 1.8 -0.5
v 0.2 1.8 -0.5
v -0.3 1.9 0.5
v -0.2 1.9 0.5
v 0.2 1.9 0.5
v 0.3 1.9 0.5
v -0.3 1.9 0.4
v -0.2 1.9 0.4
v 0.2 1.9 0.4
v 0.3 1.9 0.4
v -0.5 1.9 0.3
v -0.4 1.9 0.3
v 0.4 1.9 0.3
v 0.5 1.9 0.3
v -0.5 1.9 0.2
v -0.4 1.9 0.2
v 0.4 1.9 0.2
v 0.5 1.9 0.2
v -0.5 1.9 -0.2
v -0.4 1.9 -0.2
v 0.4 1.9 -0.2
v 0.5 1.9 -0.2
v -0.5 1.9 -0.3
v -0.4 1.9 -0.3
v 0.4 1.9 -0.3
v 0.5 1.9 -0.3
v -0.3 1.9 -0.4
v -0.2 1.9 -0.4
v 0.2 1.9 -0.4
v 0.3 1.9 -0.4
v -0.3 1.9 -0.5
v -0.2 1.9 -0.5
v 0.2 1.9 -0.5
v 0.3 1.9 -0.5
v -0.5 2.5 0.5
v 0.5 2.5 0.5
v -0.4 2.5 0.4
v 0.4 2.5 0.4
v -0.4 2.5 -0.4
v 0.4 2.5 -0.4
v -0.5 2.5 -0.5
v 0.5 2.5 -0.5

# faces
f 3/4/1 2/4/1 1/4/1
f 4/4/1 2/4/1 3/4/1
f 5/2/1 4/2/1 3/2/1
f 6/2/1 4/2/1 5/2/1
f 7/2/1 5/2/1 3/2/1
f 8/2/1 5/2/1 7/2/1
f 9/2/1 4/2/1 6/2/1
f 10/2/1 4/2/1 9/2/1
f 11/2/1 7/2/1 3/2/1
f 12/2/1 7/2/1 11/2/1
f 13/2/1 4/2/1 10/2/1
f 14/2/1 4/2/1 13/2/1
f 19/2/1 11/2/1 3/2/1
f 20/2/1 16/2/1 15/2/1
f 21/2/1 18/2/1 17/2/1
f 22/2/1 4/2/1 14/2/1
f 23/4/1 3/4/1 1/4/1
f 24/2/1 20/2/1 19/2/1
f 24/4/1 3/4/1 23/4/1
f 24/2/1 19/2/1 3/2/1
f 25/2/1 16/2/1 20/2/1
f 25/2/1 20/2/1 24/2/1
f 26/2/1 22/2/1 21/2/1
f 26/2/1 21/2/1 17/2/1
f 27/4/1 2/4/1 4/4/1
f 27/2/1 4/2/1 22/2/1
f 27/2/1 22/2/1 26/2/1
f 28/4/1 2/4/1 27/4/1
f 29/5/1 25/5/1 24/5/1
f 29/5/1 26/5/1 25/5/1
f 29/5/1 28/5/1 27/5/1
f 29/5/1 27/5/1 26/5/1
f 29/5/1 24/5/1 23/5/1
f 30/5/1 28/5/1 29/5/1
f 34/1/1 32/1/1 31/1/1
f 35/1/1 32/1/1 34/1/1
f 38/1/1 34/1/1 33/1/1
f 38/1/1 36/1/1 35/1/1
f 38/1/1 35/1/1 34/1/1
f 39/1/1 36/1/1 38/1/1
f 41/1/1 38/1/1 37/1/1
f 41/1/1 40/1/1 39/1/1
f 41/1/1 39/1/1 38/1/1
f 42/1/1 40/1/1 41/1/1
f 43/1/1 40/1/1 42/1/1
f 44/1/1 40/1/1 43/1/1
f 45/1/1 41/1/1 37/1/1
f 46/1/1 41/1/1 45/1/1
f 47/1/1 40/1/1 44/1/1
f 48/1/1 40/1/1 47/1/1
f 49/1/1 43/1/1 42/1/1
f 50/1/1 43/1/1 49/1/1
f 55/2/1 52/2/1 51/2/1
f 56/2/1 52/2/1 55/2/1
f 57/2/1 54/2/1 53/2/1
f 58/2/1 54/2/1 57/2/1
f 63/2/1 60/2/1 59/2/1
f 64/2/1 60/2/1 63/2/1
f 65/2/1 62/2/1 61/2/1
f 66/2/1 62/2/1 65/2/1
f 71/2/1 68/2/1 67/2/1
f 72/2/1 68/2/1 71/2/1
f 73/2/1 70/2/1 69/2/1
f 74/2/1 70/2/1 73/2/1
f 79/2/1 76/2/1 75/2/1
f 80/2/1 76/2/1 79/2/1
f 81/2/1 78/2/1 77/2/1
f 82/2/1 78/2/1 81/2/1
f 87/2/1 84/2/1 83/2/1
f 88/2/1 84/2/1 87/2/1
f 89/2/1 86/2/1 85/2/1
f 90/2/1 86/2/1 89/2/1
f 91/2/2 92/2/2 95/2/2
f 95/2/2 92/2/2 96/2/2
f 93/2/2 94/2/2 97/2/2
f 97/2/2 94/2/2 98/2/2
f 99/2/2 100/2/2 103/2/2
f 103/2/2 100/2/2 104/2/2
f 101/2/2 102/2/2 105/2/2
f 105/2/2 102/2/2 106/2/2
f 107/2/2 108/2/2 111/2/2
f 111/2/2 108/2/2 112/2/2
f 109/2/2 110/2/2 113/2/2
f 113/2/2 110/2/2 114/2/2
f 115/2/2 116/2/2 119/2/2
f 119/2/2 116/2/2 120/2/2
f 117/2/2 118/2/2 121/2/2
f 121/2/2 118/2/2 122/2/2
f 123/2/2 124/2/2 127/2/2
f 127/2/2 124/2/2 128/2/2
f 125/2/2 126/2/2 129/2/2
f 129/2/2 126/2/2 130/2/2
f 131/1/2 132/1/2 134/1/2
f 134/1/2 132/1/2 135/1/2
f 133/1/2 134/1/2 138/1/2
f 135/1/2 136/1/2 138/1/2
f 134/1/2 135/1/2 138/1/2
f 138/1/2 136/1/2 139/1/2
f 137/1/2 138/1/2 141/1/2
f 139/1/2 140/1/2 141/1/2
f 138/1/2 139/1/2 141/1/2
f 141/1/2 140/1/2 142/1/2
f 142/1/2 140/1/2 143/1/2
f 143/1/2 140/1/2 144/1/2
f 137/1/2 141/1/2 145/1/2
f 145/1/2 141/1/2 146/1/2
f 144/1/2 140/1/2 147/1/2
f 147/1/2 140/1/2 148/1/2
f 142/1/2 143/1/2 149/1/2
f 149/1/2 143/1/2 150/1/2
f 151/4/2 152/4/2 153/4/2
f 153/4/2 152/4/2 154/4/2
f 153/2/2 154/2/2 155/2/2
f 155/2/2 154/2/2 156/2/2
f 153/2/2 155/2/2 157/2/2
f 157/2/2 155/2/2 158/2/2
f 156/2/2 154/2/2 159/2/2
f 159/2/2 154/2/2 160/2/2
f 153/2/2 157/2/2 161/2/2
f 161/2/2 157/2/2 162/2/2
f 160/2/2 154/2/2 163/2/2
f 163/2/2 154/2/2 164/2/2
f 153/2/2 161/2/2 169/2/2
f 165/2/2 166/2/2 170/2/2
f 167/2/2 168/2/2 171/2/2
f 164/2/2 154/2/2 172/2/2
f 151/4/2 153/4/2 173/4/2
f 169/2/2 170/2/2 174/2/2
f 173/4/2 153/4/2 174/4/2
f 153/2/2 169/2/2 174/2/2
f 170/2/2 166/2/2 175/2/2
f 174/2/2 170/2/2 175/2/2
f 171/2/2 172/2/2 176/2/2
f 167/2/2 171/2/2 176/2/2
f 154/4/2 152/4/2 177/4/2
f 172/2/2 154/2/2 177/2/2
f 176/2/2 172/2/2 177/2/2
f 177/4/2 152/4/2 178/4/2
f 174/5/2 175/5/2 179/5/2
f 175/5/2 176/5/2 179/5/2
f 177/5/2 178/5/2 179/5/2
f 176/5/2 177/5/2 179/5/2
f 173/5/2 174/5/2 179/5/2
f 179/5/2 178/5/2 180/5/2
f 184/4/3 182/4/3 181/4/3
f 185/5/3 183/5/3 182/5/3
f 185/4/3 182/4/3 184/4/3
f 186/2/3 185/2/3 184/2/3
f 187/2/3 185/2/3 186/2/3
f 188/2/3 186/2/3 184/2/3
f 189/2/3 186/2/3 188/2/3
f 191/2/3 185/2/3 187/2/3
f 192/2/3 188/2/3 184/2/3
f 193/2/3 188/2/3 192/2/3
f 194/2/3 191/2/3 190/2/3
f 195/5/3 183/5/3 185/5/3
f 195/2/3 191/2/3 194/2/3
f 195/2/3 185/2/3 191/2/3
f 196/2/3 192/2/3 184/2/3
f 199/5/3 183/5/3 195/5/3
f 200/2/3 197/2/3 196/2/3
f 202/2/3 199/2/3 198/2/3
f 203/2/3 199/2/3 202/2/3
f 204/2/3 201/2/3 200/2/3
f 205/2/3 199/2/3 203/2/3
f 206/4/3 184/4/3 181/4/3
f 206/2/3 205/2/3 204/2/3
f 206/2/3 204/2/3 200/2/3
f 206/2/3 196/2/3 184/2/3
f 206/2/3 200/2/3 196/2/3
f 207/2/3 199/2/3 205/2/3
f 207/2/3 205/2/3 206/2/3
f 207/5/3 183/5/3 199/5/3
f 208/4/3 206/4/3 181/4/3
f 208/4/3 207/4/3 206/4/3
f 209/5/3 183/5/3 207/5/3
f 209/4/3 207/4/3 208/4/3
f 210/5/3 183/5/3 209/5/3
f 214/1/3 212/1/3 211/1/3
f 215/1/3 212/1/3 214/1/3
f 216/1/3 212/1/3 215/1/3
f 218/1/3 214/1/3 213/1/3
f 218/1/3 215/1/3 214/1/3
f 219/1/3 215/1/3 218/1/3
f 221/1/3 219/1/3 218/1/3
f 221/1/3 220/1/3 219/1/3
f 221/1/3 218/1/3 217/1/3
f 222/1/3 220/1/3 221/1/3
f 223/1/3 220/1/3 222/1/3
f 224/1/3 220/1/3 223/1/3
f 225/1/3 223/1/3 222/1/3
f 226/1/3 223/1/3 225/1/3
f 227/1/3 223/1/3 226/1/3
f 229/1/3 228/1/3 227/1/3
f 229/1/3 227/1/3 226/1/3
f 230/1/3 228/1/3 229/1/3
f 233/2/3 232/2/3 231/2/3
f 234/2/3 232/2/3 233/2/3
f 237/2/3 236/2/3 235/2/3
f 238/2/3 236/2/3 237/2/3
f 243/2/3 240/2/3 239/2/3
f 244/2/3 240/2/3 243/2/3
f 245/2/3 242/2/3 241/2/3
f 246/2/3 242/2/3 245/2/3
f 251/2/3 248/2/3 247/2/3
f 252/2/3 248/2/3 251/2/3
f 253/2/3 250/2/3 249/2/3
f 254/2/3 250/2/3 253/2/3
f 257/2/3 256/2/3 255/2/3
f 258/2/3 256/2/3 257/2/3
f 261/2/3 260/2/3 259/2/3
f 262/2/3 260/2/3 261/2/3
f 265/2/3 264/2/3 263/2/3
f 266/2/3 264/2/3 265/2/3
f 269/2/3 268/2/3 267/2/3
f 270/2/3 268/2/3 269/2/3
f 271/2/4 272/2/4 273/2/4
f 273/2/4 272/2/4 274/2/4
f 275/2/4 276/2/4 277/2/4
f 277/2/4 276/2/4 278/2/4
f 279/2/4 280/2/4 281/2/4
f 281/2/4 280/2/4 282/2/4
f 283/2/4 284/2/4 285/2/4
f 285/2/4 284/2/4 286/2/4
f 287/2/4 288/2/4 291/2/4
f 291/2/4 288/2/4 292/2/4
f 289/2/4 290/2/4 293/2/4
f 293/2/4 290/2/4 294/2/4
f 295/2/4 296/2/4 299/2/4
f 299/2/4 296/2/4 300/2/4
f 297/2/4 298/2/4 301/2/4
f 301/2/4 298/2/4 302/2/4
f 303/2/4 304/2/4 305/2/4
f 305/2/4 304/2/4 306/2/4
f 307/2/4 308/2/4 309/2/4
f 309/2/4 308/2/4 310/2/4
f 311/1/4 312/1/4 314/1/4
f 314/1/4 312/1/4 315/1/4
f 315/1/4 312/1/4 316/1/4
f 313/1/4 314/1/4 318/1/4
f 314/1/4 315/1/4 318/1/4
f 318/1/4 315/1/4 319/1/4
f 318/1/4 319/1/4 321/1/4
f 319/1/4 320/1/4 321/1/4
f 317/1/4 318/1/4 321/1/4
f 321/1/4 320/1/4 322/1/4
f 322/1/4 320/1/4 323/1/4
f 323/1/4 320/1/4 324/1/4
f 322/1/4 323/1/4 325/1/4
f 325/1/4 323/1/4 326/1/4
f 326/1/4 323/1/4 327/1/4
f 327/1/4 328/1/4 329/1/4
f 326/1/4 327/1/4 329/1/4
f 329/1/4 328/1/4 330/1/4
f 331/4/4 332/4/4 334/4/4
f 332/5/4 333/5/4 335/5/4
f 334/4/4 332/4/4 335/4/4
f 334/2/4 335/2/4 336/2/4
f 336/2/4 335/2/4 337/2/4
f 334/2/4 336/2/4 338/2/4
f 338/2/4 336/2/4 339/2/4
f 337/2/4 335/2/4 341/2/4
f 334/2/4 338/2/4 342/2/4
f 342/2/4 338/2/4 343/2/4
f 340/2/4 341/2/4 344/2/4
f 335/5/4 333/5/4 345/5/4
f 344/2/4 341/2/4 345/2/4
f 341/2/4 335/2/4 345/2/4
f 334/2/4 342/2/4 346/2/4
f 345/5/4 333/5/4 349/5/4
f 346/2/4 347/2/4 350/2/4
f 348/2/4 349/2/4 352/2/4
f 352/2/4 349/2/4 353/2/4
f 350/2/4 351/2/4 354/2/4
f 353/2/4 349/2/4 355/2/4
f 331/4/4 334/4/4 356/4/4
f 354/2/4 355/2/4 356/2/4
f 350/2/4 354/2/4 356/2/4
f 334/2/4 346/2/4 356/2/4
f 346/2/4 350/2/4 356/2/4
f 355/2/4 349/2/4 357/2/4
f 356/2/4 355/2/4 357/2/4
f 349/5/4 333/5/4 357/5/4
f 331/4/4 356/4/4 358/4/4
f 356/4/4 357/4/4 358/4/4
f 357/5/4 333/5/4 359/5/4
f 358/4/4 357/4/4 359/4/4
f 359/5/4 333/5/4 360/5/4
f 363/4/5 362/4/5 361/4/5
f 364/4/5 362/4/5 363/4/5
f 365/4/5 363/4/5 361/4/5
f 365/2/5 364/2/5 363/2/5
f 366/4/5 362/4/5 364/4/5
f 366/2/5 364/2/5 365/2/5
f 367/4/5 365/4/5 361/4/5
f 367/4/5 366/4/5 365/4/5
f 368/4/5 362/4/5 366/4/5
f 368/4/5 366/4/5 367/4/5
f 373/2/5 370/2/5 369/2/5
f 374/2/5 370/2/5 373/2/5
f 375/2/5 372/2/5 371/2/5
f 376/2/5 372/2/5 375/2/5
f 381/2/5 378/2/5 377/2/5
f 382/2/5 378/2/5 381/2/5
f 383/2/5 380/2/5 379/2/5
f 384/2/5 380/2/5 383/2/5
f 389/2/5 386/2/5 385/2/5
f 390/2/5 386/2/5 389/2/5
f 391/2/5 388/2/5 387/2/5
f 392/2/5 388/2/5 391/2/5
f 397/2/5 394/2/5 393/2/5
f 398/2/5 394/2/5 397/2/5
f 399/2/5 396/2/5 395/2/5
f 400/2/5 396/2/5 399/2/5
f 405/2/5 402/2/5 401/2/5
f 406/2/5 402/2/5 405/2/5
f 407/2/5 404/2/5 403/2/5
f 408/2/5 404/2/5 407/2/5
f 413/2/5 410/2/5 409/2/5
f 414/2/5 410/2/5 413/2/5
f 415/2/5 412/2/5 411/2/5
f 416/2/5 412/2/5 415/2/5
f 421/2/5 418/2/5 417/2/5
f 422/2/5 418/2/5 421/2/5
f 423/2/5 420/2/5 419/2/5
f 424/2/5 420/2/5 423/2/5
f 429/2/5 426/2/5 425/2/5
f 430/2/5 426/2/5 429/2/5
f 431/2/5 428/2/5 427/2/5
f 432/2/5 428/2/5 431/2/5
f 435/5/5 434/5/5 433/5/5
f 436/5/5 434/5/5 435/5/5
f 441/5/5 438/5/5 437/5/5
f 442/5/5 438/5/5 441/5/5
f 443/5/5 440/5/5 439/5/5
f 444/5/5 440/5/5 443/5/5
f 447/5/5 446/5/5 445/5/5
f 448/5/5 446/5/5 447/5/5
f 449/2/6 450/2/6 451/2/6
f 451/2/6 450/2/6 452/2/6
f 453/2/6 454/2/6 457/2/6
f 457/2/6 454/2/6 458/2/6
f 455/2/6 456/2/6 459/2/6
f 459/2/6 456/2/6 460/2/6
f 461/2/6 462/2/6 463/2/6
f 463/2/6 462/2/6 464/2/6
f 465/2/6 466/2/6 469/2/6
f 469/2/6 466/2/6 470/2/6
f 467/2/6 468/2/6 471/2/6
f 471/2/6 468/2/6 472/2/6
f 473/2/6 474/2/6 477/2/6
f 477/2/6 474/2/6 478/2/6
f 475/2/6 476/2/6 479/2/6
f 479/2/6 476/2/6 480/2/6
f 481/2/6 482/2/6 485/2/6
f 485/2/6 482/2/6 486/2/6
f 483/2/6 484/2/6 487/2/6
f 487/2/6 484/2/6 488/2/6
f 489/2/6 490/2/6 493/2/6
f 493/2/6 490/2/6 494/2/6
f 491/2/6 492/2/6 495/2/6
f 495/2/6 492/2/6 496/2/6
f 497/2/6 498/2/6 501/2/6
f 501/2/6 498/2/6 502/2/6
f 499/2/6 500/2/6 503/2/6
f 503/2/6 500/2/6 504/2/6
f 505/2/6 506/2/6 509/2/6
f 509/2/6 506/2/6 510/2/6
f 507/2/6 508/2/6 511/2/6
f 511/2/6 508/2/6 512/2/6
f 513/2/6 514/2/6 517/2/6
f 517/2/6 514/2/6 518/2/6
f 515/2/6 516/2/6 519/2/6
f 519/2/6 516/2/6 520/2/6
f 521/2/6 522/2/6 525/2/6
f 525/2/6 522/2/6 526/2/6
f 523/2/6 524/2/6 527/2/6
f 527/2/6 524/2/6 528/2/6
f 529/5/6 530/5/6 531/5/6
f 531/5/6 530/5/6 532/5/6
f 529/5/6 531/5/6 533/5/6
f 531/3/6 532/3/6 533/3/6
f 532/5/6 530/5/6 534/5/6
f 533/3/6 532/3/6 534/3/6
f 529/5/6 533/5/6 535/5/6
f 533/5/6 534/5/6 535/5/6
f 534/5/6 530/5/6 536/5/6
f 535/5/6 534/5/6 536/5/6
